<svg xmlns="http://www.w3.org/2000/svg" width="514" height="514"><path fill="#b8b2ff" d="M218.122 147.482q2.4-.008 4.8-.02c4.318-.019 8.637-.012 12.956 0 4.551.01 9.102.001 13.653-.005q11.479-.01 22.958.022c8.788.021 17.576.014 26.364-.008q11.385-.026 22.77-.01c4.514.006 9.026.007 13.539-.006 23.32-.06 46.029.36 68.276 8.295l3.007 1.041c37.15 13.221 67.46 40.226 84.446 75.796 5.065 11.018 8.532 22.336 11.422 34.1l.735 2.983c3.464 14.884 4.302 29.445 4.268 44.664-.003 2.898.02 5.795.045 8.693.054 15.912-1.567 31.533-5.548 46.973l-.628 2.452c-10.366 38.561-34.667 70.177-68.978 90.415-9.488 5.377-19.271 9.534-29.582 13.07l-3.07 1.072c-22.945 7.442-46.007 7.597-69.853 7.528-4.668-.01-9.337 0-14.006.006q-11.73.01-23.459-.022a5565 5565 0 0 0-27.04.008q-11.68.026-23.362.01c-4.63-.006-9.261-.007-13.892.006q-6.516.017-13.031-.02-2.379-.007-4.756.006c-13.508.068-24.134-1.963-34.156-11.531-8.809-9.227-11.626-18.85-11.47-31.365.468-11.827 5.018-20.476 13.536-28.608 12.072-10.171 25.86-10.175 40.893-10.169l4.531-.01q4.864-.011 9.727-.017 7.713-.01 15.428-.041l7.98-.029c11.96-.042 23.92-.075 35.882-.087a6563 6563 0 0 0 24.25-.07c4.266-.019 8.533-.031 12.8-.026q6.034.005 12.068-.037 2.193-.011 4.386 0c20.481.092 40.033-5.248 55.989-18.541l2.176-1.797c13.832-12.57 20.022-32.986 21.045-51.123.144-4.36.165-8.718.154-13.08v-2.336c-.065-23.595-4.167-48.044-21-65.914-16.185-15.232-35.759-20.064-57.333-20.021l-4.458-.016q-4.775-.017-9.548-.018c-5.046-.002-10.091-.02-15.137-.04a16999 16999 0 0 0-37.596-.102c-9.743-.017-19.487-.04-29.23-.083q-7.504-.032-15.007-.028c-3.129-.001-6.257-.015-9.386-.033a582 582 0 0 0-4.307 0c-14.759.046-28.658-1.314-39.846-11.706-9.893-10.36-12.037-20.198-11.8-34.14.453-10.945 5.557-19.106 13.34-26.536 10.267-8.651 21.106-9.619 34.055-9.545"/><path fill="#6d63ff" d="M186.298 22.463c4.668.01 9.337 0 14.006-.006q11.73-.01 23.459.022c9.013.021 18.026.014 27.04-.008q11.68-.026 23.362-.01c4.63.006 9.261.007 13.892-.006q6.516-.017 13.031.02 2.379.008 4.756-.006C319.352 22.401 329.978 24.432 340 34c8.809 9.227 11.626 18.85 11.47 31.365-.468 11.827-5.018 20.476-13.536 28.608-12.072 10.171-25.86 10.175-40.893 10.169l-4.531.01a6873 6873 0 0 1-9.727.017q-7.713.01-15.428.041l-5.3.019-2.68.01c-11.96.042-23.92.075-35.882.087a6563 6563 0 0 0-24.25.07c-4.266.019-8.533.031-12.8.026q-6.034-.005-12.068.037-2.193.011-4.386 0c-21.92-.098-43.293 6.48-59.677 21.604-16.158 17.083-19.744 40.34-19.687 62.937v2.336c.065 23.595 4.167 48.044 21 65.914 14.84 13.965 33.605 19.957 53.64 20.129l3.143.051c3.28.053 6.561.094 9.842.133q4.942.065 9.885.142 3.06.048 6.123.08c4.685.069 9.135.256 13.742 1.215l-2.063 1.563C195.44 289.274 188.447 299.11 187 313c-.884 10.937 2.23 21.873 8.977 30.54 4.518 5.262 8.945 9.16 15.023 12.46l3 2c-2.676 1.338-4.756 1.15-7.753 1.177l-3.667.039q-2.001.012-4.002.022l-2.05.013q-5.408.03-10.814.044-4.41.014-8.82.062C133.506 359.82 91.527 350.478 59 320l-1.75-1.621c-29.67-27.74-46.413-68.29-48.364-108.74a427 427 0 0 1-.124-7.483l-.03-2.784C8.406 160.93 8.406 160.93 13 142l.65-2.757C22.861 101.203 45.381 67.603 79 47c10.958-6.65 22.251-11.78 34.375-15.937l3.07-1.072c22.945-7.442 46.007-7.597 69.853-7.528"/><path fill="#6d63ff" d="M310.313 276.75c10.826 7.078 17.33 16.938 21.125 29.25 2.476 13.053.102 25.453-6.625 36.813-7.212 10.51-17.47 17.76-30 20.562-13.447 2.07-26.564-.502-37.813-8.375-10.068-8.028-16.603-18.757-18.809-31.523-.5-6.47-.156-12.15 1.434-18.414l.533-2.111c1.586-5.81 4.01-10.286 7.842-14.952l2.25-3.125c16.154-16.888 39.888-19.398 60.063-8.125"/></svg>